<?xml version="1.0" encoding="utf-8"?>
<!-- Generator: Adobe Illustrator 13.0.0, SVG Export Plug-In . SVG Version: 6.00 Build 14948)  -->
<!DOCTYPE svg PUBLIC "-//W3C//DTD SVG 1.1//EN" "http://www.w3.org/Graphics/SVG/1.1/DTD/svg11.dtd">
<svg version="1.1" id="Layer_1" xmlns="http://www.w3.org/2000/svg" xmlns:xlink="http://www.w3.org/1999/xlink" x="0px" y="0px"
	 width="528px" height="231px" viewBox="0 0 528 231" enable-background="new 0 0 528 231" xml:space="preserve">
<g>
	<path fill="none" stroke="#E4E4E4" d="M186.361,197.675c75.703,23.693,153.543,63.212,233.235-8.97
		c79.693-72.182,129.794-135.414,97.44-217.227c-32.354-81.814-164.422-30.855-202.794-103.977
		c-38.373-73.122,45.939-139.485,9.591-204.563c-36.351-65.078-64.3-106.787-181.115-65.409
		C25.902-361.092,36.673-255.807-52.16-194.153c-88.833,61.654-184.944,153.953-53.046,318.647
		C26.692,289.188,110.659,173.98,186.361,197.675L186.361,197.675z"/>
	<path fill="none" stroke="#E4E4E4" d="M176.895,159.751c61.583,19.24,124.905,51.33,189.734-7.283
		c64.828-58.614,105.585-109.959,79.266-176.393c-26.319-66.434-133.755-25.055-164.971-84.43
		c-31.216-59.377,37.372-113.266,7.803-166.11c-29.57-52.845-52.307-86.713-147.334-53.113
		c-95.028,33.6-86.267,119.094-158.53,169.158c-72.265,50.064-150.45,125.012-43.153,258.747S115.312,140.511,176.895,159.751z"/>
	<path fill="none" stroke="#E4E4E4" d="M159.188,134.583c49.962,15.698,101.334,41.882,153.929-5.942
		c52.594-47.826,85.66-89.721,64.307-143.927c-21.353-54.206-108.513-20.443-133.838-68.89
		c-25.325-48.448,30.32-92.418,6.33-135.536c-23.99-43.117-42.436-70.752-119.531-43.336C53.29-235.633,60.398-165.875,1.77-125.026
		C-56.856-84.176-120.287-23.023-33.238,86.096C53.811,195.216,109.227,118.884,159.188,134.583z"/>
	<path fill="none" stroke="#E4E4E4" d="M140.684,103.816c40.295,12.596,81.728,33.603,124.147-4.768s69.087-71.984,51.865-115.475
		C299.475-59.918,229.178-32.829,208.753-71.7c-20.425-38.87,24.453-74.147,5.105-108.743s-34.225-56.767-96.404-34.77
		c-62.179,21.996-56.446,77.965-103.73,110.739C-33.56-71.7-84.718-22.635-14.512,64.914
		C55.695,152.464,100.389,91.221,140.684,103.816z"/>
	<path fill="none" stroke="#E4E4E4" d="M135.917,83.954c32.91,10.295,66.749,27.467,101.393-3.897
		c34.643-31.365,56.424-58.84,42.358-94.389c-14.064-35.549-71.477-13.407-88.158-45.179c-16.682-31.772,19.971-60.609,4.17-88.886
		c-15.803-28.277-27.953-46.4-78.735-28.42c-50.782,17.979-46.101,63.727-84.718,90.516C-6.39-59.51-48.17-19.406,9.167,52.156
		C66.506,123.718,103.008,73.659,135.917,83.954z"/>
	<path fill="none" stroke="#E4E4E4" d="M126.775,69.594c26.718,8.36,54.191,22.305,82.318-3.165
		c28.127-25.47,45.81-47.78,34.39-76.648c-11.419-28.868-58.03-10.887-71.574-36.688c-13.544-25.8,16.214-49.217,3.385-72.18
		c-12.83-22.963-22.694-37.68-63.923-23.08c-41.229,14.6-37.428,51.75-68.78,73.505C11.238-46.908-22.684-14.34,23.868,43.772
		C70.421,101.884,100.056,61.234,126.775,69.594z"/>
</g>
</svg>
